<svg xmlns="http://www.w3.org/2000/svg" version="1.1" width="400" height="400" viewBox="0 0 400 400">
<g>
<svg viewBox="0 0 400 400" preserveAspectRatio="xMidYMid meet" height="400" width="400" xmlns="http://www.w3.org/2000/svg">
<g>
<svg viewBox="0 0 400 400" height="400" width="400"><g>

<svg viewBox="0 0 400 400" height="400" width="400">
<g transform="matrix(1,0,0,1,75.54432,98.38746396948265)">
<svg viewBox="0 0 244.43135999999998 50.42507206103469" height="50.42507206103469" width="244.43135999999998">
<g><svg viewBox="0 0 244.43135999999998 50.42507206103469" height="50.42507206103469" width="244.43135999999998"><g>
<svg viewBox="0 0 332.6981274974578 68.63410265209266" height="50.42507206103469" width="244.43135999999998">
<g transform="matrix(1,0,0,1,88.26676749745775,9.485610424420916)">
<svg viewBox="0 0 244.43136 49.66288180325083" height="49.66288180325083" width="244.43136">
<g id="textblocktransform">
<svg viewBox="0 0 244.43136 49.66288180325083" height="49.66288180325083" width="244.43136" id="textblock">
<g><svg viewBox="0 0 244.43136 49.66288180325083" height="49.66288180325083" width="244.43136">
<g transform="matrix(1,0,0,1,0,0)">
<svg width="244.43136" viewBox="2.857281446456909 -39.5 196.8612823486328 40" height="49.66288180325083" 
data-palette-color="#6b7280"><path d="M17.4 0.5L17.4 0.5Q14.2 0.5 11.3-0.5 8.4-1.5 6.25-3.3 4.1-5.1 3.1-7.45L3.1-7.45Q2.6-8.5 3.13-9.4 3.65-10.3 4.9-10.55L4.9-10.55Q5.8-10.75 6.68-10.28 7.55-9.8 8-8.85L8-8.85Q8.6-7.6 9.98-6.55 11.35-5.5 13.3-4.85 15.25-4.2 17.4-4.2L17.4-4.2Q19.8-4.2 21.83-4.95 23.85-5.7 25.1-7.13 26.35-8.55 26.35-10.65L26.35-10.65Q26.35-13.3 24.28-15.4 22.2-17.5 17.45-18L17.45-18Q11.25-18.6 7.7-21.65 4.15-24.7 4.15-29.2L4.15-29.2Q4.15-32.5 6-34.8 7.85-37.1 11.03-38.3 14.2-39.5 18.1-39.5L18.1-39.5Q21.15-39.5 23.43-38.65 25.7-37.8 27.4-36.3 29.1-34.8 30.35-32.75L30.35-32.75Q31.05-31.65 30.93-30.68 30.8-29.7 29.95-29.15L29.95-29.15Q29-28.55 27.9-28.9 26.8-29.25 26.25-30.2L26.25-30.2Q25.45-31.65 24.3-32.65 23.15-33.65 21.6-34.23 20.05-34.8 17.95-34.8L17.95-34.8Q14.25-34.85 11.75-33.43 9.25-32 9.25-29.05L9.25-29.05Q9.25-27.55 10.03-26.18 10.8-24.8 12.88-23.8 14.95-22.8 18.85-22.4L18.85-22.4Q24.8-21.8 28.13-18.78 31.45-15.75 31.45-10.8L31.45-10.8Q31.45-7.95 30.28-5.85 29.1-3.75 27.13-2.33 25.15-0.9 22.63-0.2 20.1 0.5 17.4 0.5ZM50.4 0.25L50.4 0.25Q46.95 0.25 44.22-1.23 41.5-2.7 39.92-5.55 38.35-8.4 38.35-12.55L38.35-12.55 38.35-24.85Q38.35-25.95 39.07-26.68 39.8-27.4 40.9-27.4L40.9-27.4Q42-27.4 42.72-26.68 43.45-25.95 43.45-24.85L43.45-24.85 43.45-12.55Q43.45-9.75 44.5-7.93 45.55-6.1 47.35-5.23 49.15-4.35 51.4-4.35L51.4-4.35Q53.55-4.35 55.22-5.2 56.9-6.05 57.9-7.5 58.9-8.95 58.9-10.75L58.9-10.75 62.05-10.75Q62.05-7.65 60.52-5.15 59-2.65 56.37-1.2 53.75 0.25 50.4 0.25ZM61.45 0L61.45 0Q60.35 0 59.62-0.73 58.9-1.45 58.9-2.55L58.9-2.55 58.9-24.85Q58.9-26 59.62-26.7 60.35-27.4 61.45-27.4L61.45-27.4Q62.6-27.4 63.3-26.7 64-26 64-24.85L64-24.85 64-2.55Q64-1.45 63.3-0.73 62.6 0 61.45 0ZM86.75 0.2L86.75 0.2Q82.84 0.2 79.75-1.63 76.65-3.45 74.84-6.6 73.05-9.75 73-13.7L73-13.7 73-36.5Q73-37.65 73.72-38.35 74.45-39.05 75.55-39.05L75.55-39.05Q76.7-39.05 77.4-38.35 78.09-37.65 78.09-36.5L78.09-36.5 78.09-23Q79.84-25.1 82.32-26.33 84.8-27.55 87.75-27.55L87.75-27.55Q91.4-27.55 94.3-25.73 97.2-23.9 98.87-20.78 100.55-17.65 100.55-13.7L100.55-13.7Q100.55-9.75 98.72-6.6 96.9-3.45 93.8-1.63 90.7 0.2 86.75 0.2ZM86.75-4.3L86.75-4.3Q89.3-4.3 91.3-5.53 93.3-6.75 94.47-8.9 95.65-11.05 95.65-13.7L95.65-13.7Q95.65-16.4 94.47-18.5 93.3-20.6 91.3-21.83 89.3-23.05 86.75-23.05L86.75-23.05Q84.25-23.05 82.22-21.83 80.2-20.6 79.05-18.5 77.9-16.4 77.9-13.7L77.9-13.7Q77.9-11.05 79.05-8.9 80.2-6.75 82.22-5.53 84.25-4.3 86.75-4.3ZM120.29 0L111.24 0Q110.14 0 109.39-0.75 108.64-1.5 108.64-2.6L108.64-2.6 108.64-36.45Q108.64-37.6 109.39-38.33 110.14-39.05 111.24-39.05L111.24-39.05 120.29-39.05Q124.59-39.05 128.12-37.63 131.64-36.2 134.24-33.58 136.84-30.95 138.24-27.4 139.64-23.85 139.64-19.55L139.64-19.55Q139.64-15.25 138.24-11.68 136.84-8.1 134.24-5.48 131.64-2.85 128.12-1.43 124.59 0 120.29 0L120.29 0ZM113.84-34.45L113.84-4.6 120.29-4.6Q124.49-4.6 127.72-6.53 130.94-8.45 132.79-11.83 134.64-15.2 134.64-19.55L134.64-19.55Q134.64-23.95 132.79-27.3 130.94-30.65 127.72-32.55 124.49-34.45 120.29-34.45L120.29-34.45 113.84-34.45ZM160.14 0.2L160.14 0.2Q155.99 0.2 152.77-1.58 149.54-3.35 147.72-6.48 145.89-9.6 145.89-13.65L145.89-13.65Q145.89-17.75 147.62-20.88 149.34-24 152.39-25.78 155.44-27.55 159.39-27.55L159.39-27.55Q163.29-27.55 166.09-25.83 168.89-24.1 170.37-21.08 171.84-18.05 171.84-14.1L171.84-14.1Q171.84-13.15 171.19-12.53 170.54-11.9 169.54-11.9L169.54-11.9 149.39-11.9 149.39-15.9 169.39-15.9 167.34-14.5Q167.29-17 166.34-18.98 165.39-20.95 163.64-22.1 161.89-23.25 159.39-23.25L159.39-23.25Q156.54-23.25 154.52-22 152.49-20.75 151.44-18.57 150.39-16.4 150.39-13.65L150.39-13.65Q150.39-10.9 151.64-8.75 152.89-6.6 155.09-5.35 157.29-4.1 160.14-4.1L160.14-4.1Q161.69-4.1 163.32-4.67 164.94-5.25 165.94-6L165.94-6Q166.69-6.55 167.57-6.58 168.44-6.6 169.09-6.05L169.09-6.05Q169.94-5.3 169.99-4.4 170.04-3.5 169.19-2.85L169.19-2.85Q167.49-1.5 164.97-0.65 162.44 0.2 160.14 0.2ZM186.59-0.05L186.59-0.05Q185.04-0.05 184.19-1.7L184.19-1.7 173.59-24.05Q173.19-24.9 173.51-25.73 173.84-26.55 174.79-27L174.79-27Q175.64-27.45 176.51-27.15 177.39-26.85 177.84-26L177.84-26 187.74-4.65 185.34-4.65 195.14-26Q195.59-26.85 196.51-27.15 197.44-27.45 198.39-27L198.39-27Q199.29-26.6 199.59-25.75 199.89-24.9 199.49-24.05L199.49-24.05 188.89-1.7Q188.14-0.05 186.59-0.05Z" 
opacity="1" transform="matrix(1,0,0,1,0,0)" fill="#6b7280" class="wordmark-text-0" 
data-fill-palette-color="primary" id="text-0"></path></svg></g></svg></g></svg></g></svg></g><g>
<svg viewBox="0 0 76.5425530128735 68.63410265209266" height="68.63410265209266" width="76.5425530128735"><g>
<svg xmlns="http://www.w3.org/2000/svg" version="1.1" x="0" y="0" 
viewBox="9.40000057220459 13.5 81.29999542236328 72.9000015258789" style="enable-background:new 0 0 100 100;" 
height="68.63410265209266" width="76.5425530128735" class="icon-icon-0" data-fill-palette-color="accent" id="icon-0">
<path d="M83.3 13.5H16.7c-4 0-7.3 3.3-7.3 7.3v58.3c0 4 3.3 7.3 7.3 7.3h66.7c4 0 7.3-3.3 7.3-7.3V20.8C90.6 16.8 87.4 13.5 83.3 13.5zM84.4 20.8v9.4H49V19.8h34.4C83.9 19.8 84.4 20.3 84.4 20.8zM32.3 30.2V19.8h10.4v10.4H32.3zM16.7 19.8H26v10.4H15.6v-9.4C15.6 20.3 16.1 19.8 16.7 19.8zM15.6 79.2V36.5h14.6v43.7H16.7C16.1 80.2 15.6 79.7 15.6 79.2zM83.3 80.2H36.5V36.5h47.9v42.7C84.4 79.7 83.9 80.2 83.3 80.2z" 
fill="#6b7280" data-fill-palette-color="accent"></path>
<rect x="45.8" y="46.9" width="29.2" height="6.2" fill="#6b7280" data-fill-palette-color="accent"></rect>
<rect x="45.8" y="63.5" width="20.8" height="6.2" fill="#6b7280" data-fill-palette-color="accent"></rect></svg>
</g></svg></g></svg></g></svg></g></svg></g><path d="M192.901 92.387L192.901 29.424 4.549 29.424 4.549 217.776 192.901 217.776 192.901 154.813 189.61 154.813 189.61 214.486 7.839 214.486 7.839 32.714 189.61 32.714 189.61 92.387Z" 
fill="#6b7280" stroke="transparent" data-fill-palette-color="primary"></path></svg></g><defs></defs></svg>
<rect width="395.52" height="247.2" fill="none" stroke="none" visibility="hidden"></rect></g></svg></g></svg>